<svg width="300" height="300" viewBox="0 0 300 300" fill="none" xmlns="http://www.w3.org/2000/svg">
<path d="M155.481 153.098L168.956 157.542L175.1 138.91H155.481V153.098ZM86.9705 257.647L86.9705 271.836L86.984 271.836L86.9705 257.647ZM133.637 219.334L120.162 214.89L120.162 214.89L133.637 219.334ZM113.321 252.377L120.501 264.615L120.501 264.615L113.321 252.377ZM83.4572 167.287H155.481V138.91H83.4572V167.287ZM86.9705 243.459H29V271.836H86.9705V243.459ZM142.007 148.655L120.162 214.89L147.111 223.778L168.956 157.542L142.007 148.655ZM106.141 240.14C104.363 241.183 100.308 242.266 95.0857 242.897C92.7755 243.176 90.6771 243.319 89.1592 243.39C88.4067 243.426 87.8133 243.443 87.4274 243.451C87.2348 243.456 87.0952 243.458 87.0145 243.458C86.9741 243.459 86.9487 243.459 86.9388 243.459C86.9339 243.459 86.9329 243.459 86.9359 243.459C86.9374 243.459 86.9399 243.459 86.9434 243.459C86.9452 243.459 86.9472 243.459 86.9495 243.459C86.9506 243.459 86.9525 243.459 86.9531 243.459C86.9551 243.459 86.9571 243.459 86.9705 257.647C86.984 271.836 86.9861 271.836 86.9884 271.836C86.9892 271.836 86.9915 271.836 86.9932 271.836C86.9965 271.836 87.0001 271.836 87.004 271.836C87.0117 271.836 87.0205 271.836 87.0304 271.836C87.0502 271.836 87.0743 271.836 87.1026 271.835C87.1591 271.835 87.2324 271.834 87.3217 271.833C87.5002 271.832 87.743 271.828 88.0436 271.821C88.644 271.808 89.4797 271.783 90.4979 271.735C92.5217 271.64 95.3319 271.45 98.4901 271.068C104.204 270.378 113.324 268.826 120.501 264.615L106.141 240.14ZM120.162 214.89C118.042 221.32 116.166 226.762 113.701 231.366C111.309 235.835 108.847 238.552 106.141 240.14L120.501 264.615C129.23 259.493 134.85 251.984 138.719 244.758C142.515 237.665 145.079 229.94 147.111 223.778L120.162 214.89Z" fill="black"/>
<path d="M190.615 153.099V138.91H162.911L179.102 161.39L190.615 153.099ZM197.769 85.4977L197.769 71.3094L197.769 85.4977ZM266.462 103.36L254.055 110.244L254.055 110.244L266.462 103.36ZM270.319 120.626L256.136 120.264L256.136 120.264L270.319 120.626ZM243.188 152.353L245.869 166.285L245.869 166.285L243.188 152.353ZM179.102 161.39L258.806 272.061L281.833 255.478L202.128 144.807L179.102 161.39ZM154.378 99.6861L197.769 99.686L197.769 71.3094L154.378 71.3094L154.378 99.6861ZM254.055 110.244C255.246 112.389 256.257 115.518 256.136 120.264L284.503 120.989C284.744 111.571 282.697 103.377 278.868 96.4756L254.055 110.244ZM256.136 120.264C255.936 128.052 253.255 131.72 250.862 133.81C247.991 136.318 244.084 137.731 240.507 138.42L245.869 166.285C252.065 165.093 261.427 162.259 269.529 155.183C278.11 147.688 284.108 136.433 284.503 120.989L256.136 120.264ZM229.329 138.91H190.615V167.287H229.329V138.91ZM240.507 138.42C237.614 138.977 234.625 138.91 229.329 138.91V167.287C233.313 167.287 239.651 167.482 245.869 166.285L240.507 138.42ZM197.769 99.686C211.712 99.686 223.728 98.7445 234.981 100.305C245.69 101.791 251.182 105.066 254.055 110.244L278.868 96.4756C269.641 79.8474 253.257 74.1917 238.879 72.1976C225.045 70.2789 208.765 71.3094 197.769 71.3094L197.769 99.686Z" fill="#EE7A1B"/>
<path d="M236.445 56.3072L253.664 62.2565C254.446 62.5267 255.161 63.0134 255.546 63.7459C257.495 67.4539 254.197 69.4417 252.12 69.9983C215.602 80.7248 141.703 100.973 137.468 100.719C136.032 100.633 133.5 100.08 132.428 99.4802C131.236 98.8127 130.752 97.9736 130.436 97.2686C130.148 96.6268 130.276 95.7847 130.782 95.2955L134.178 92.0097C134.647 91.5553 134.839 90.891 134.691 90.2545C133.95 87.0759 131.794 76.989 131.833 67.3886C131.873 57.5299 134.968 48.3764 136.377 45.6905C138.991 39.3402 148.905 25.1487 167.646 19.1853C186.388 13.2219 197.94 13.3438 201.373 14.1502L213.855 28.226C213.855 28.226 221.378 32.5646 227.564 39.8542C232.141 45.2471 235.695 53.5053 236.445 56.3072Z" fill="#FFBE18"/>
<path d="M208.066 38.2517L213.388 29.9989C200.856 22.7635 170.266 14.9052 148.163 41.3554C169.831 23.1199 197.127 31.6882 208.066 38.2517Z" fill="white" fill-opacity="0.6"/>
<rect width="18.4091" height="2.48463" rx="1.24231" transform="matrix(-0.944274 -0.329161 -0.329161 0.944274 252.844 63.6943)" fill="white" fill-opacity="0.5"/>
</svg>
