<svg width="326" height="140" viewBox="0 0 326 140" fill="none" xmlns="http://www.w3.org/2000/svg">
<path d="M22.068 104.636C19.5594 104.636 17.245 104.177 15.125 103.258C13.0404 102.304 11.3267 100.961 9.98403 99.2299L14.754 93.5059C16.768 96.2266 19.0647 97.5869 21.644 97.5869C25.142 97.5869 26.891 95.5376 26.891 91.4389V73.7899H13.853V66.8999H35.424V90.9619C35.424 95.5199 34.2934 98.9473 32.032 101.244C29.7707 103.505 26.4494 104.636 22.068 104.636ZM72.0479 75.4859V104H64.2039V100.608C63.1085 101.845 61.8012 102.799 60.2819 103.47C58.7625 104.106 57.1195 104.424 55.3529 104.424C51.6075 104.424 48.6395 103.346 46.4489 101.191C44.2582 99.0356 43.1629 95.8379 43.1629 91.5979V75.4859H51.4309V90.3789C51.4309 94.9723 53.3565 97.2689 57.2079 97.2689C59.1865 97.2689 60.7765 96.6329 61.9779 95.3609C63.1792 94.0536 63.7799 92.1279 63.7799 89.5839V75.4859H72.0479Z" fill="black"/>
<path d="M105.148 104L97.5686 93.1349C97.2506 93.1703 96.7736 93.1879 96.1376 93.1879H87.7636V104H80.8736V66.8999H96.1376C99.3529 66.8999 102.144 67.4299 104.512 68.4899C106.914 69.5499 108.752 71.0693 110.024 73.0479C111.296 75.0266 111.932 77.3763 111.932 80.0969C111.932 82.8883 111.243 85.2909 109.865 87.3049C108.522 89.3189 106.579 90.8206 104.035 91.8099L112.568 104H105.148ZM104.989 80.0969C104.989 77.7296 104.211 75.9099 102.657 74.6379C101.102 73.3659 98.8229 72.7299 95.8196 72.7299H87.7636V87.5169H95.8196C98.8229 87.5169 101.102 86.8809 102.657 85.6089C104.211 84.3016 104.989 82.4643 104.989 80.0969ZM131.724 104.371C128.862 104.371 126.283 103.753 123.986 102.516C121.69 101.279 119.888 99.5656 118.58 97.3749C117.308 95.1489 116.672 92.6403 116.672 89.8489C116.672 87.0576 117.308 84.5666 118.58 82.3759C119.888 80.1853 121.69 78.4716 123.986 77.2349C126.283 75.9983 128.862 75.3799 131.724 75.3799C134.622 75.3799 137.219 75.9983 139.515 77.2349C141.812 78.4716 143.596 80.1853 144.868 82.3759C146.176 84.5666 146.829 87.0576 146.829 89.8489C146.829 92.6403 146.176 95.1489 144.868 97.3749C143.596 99.5656 141.812 101.279 139.515 102.516C137.219 103.753 134.622 104.371 131.724 104.371ZM131.724 98.6999C134.162 98.6999 136.176 97.8873 137.766 96.2619C139.356 94.6366 140.151 92.4989 140.151 89.8489C140.151 87.1989 139.356 85.0613 137.766 83.4359C136.176 81.8106 134.162 80.9979 131.724 80.9979C129.286 80.9979 127.272 81.8106 125.682 83.4359C124.128 85.0613 123.35 87.1989 123.35 89.8489C123.35 92.4989 124.128 94.6366 125.682 96.2619C127.272 97.8873 129.286 98.6999 131.724 98.6999ZM168.852 75.3799C171.608 75.3799 174.064 75.9806 176.219 77.1819C178.41 78.3833 180.124 80.0793 181.36 82.2699C182.597 84.4606 183.215 86.9869 183.215 89.8489C183.215 92.7109 182.597 95.2549 181.36 97.4809C180.124 99.6716 178.41 101.368 176.219 102.569C174.064 103.77 171.608 104.371 168.852 104.371C166.909 104.371 165.125 104.035 163.499 103.364C161.909 102.693 160.567 101.686 159.471 100.343V104H153.164V64.6739H159.789V79.1429C160.92 77.9063 162.245 76.9699 163.764 76.3339C165.319 75.6979 167.015 75.3799 168.852 75.3799ZM168.11 98.6999C170.548 98.6999 172.545 97.8873 174.099 96.2619C175.689 94.6366 176.484 92.4989 176.484 89.8489C176.484 87.1989 175.689 85.0613 174.099 83.4359C172.545 81.8106 170.548 80.9979 168.11 80.9979C166.52 80.9979 165.089 81.3689 163.817 82.1109C162.545 82.8176 161.538 83.8423 160.796 85.1849C160.054 86.5276 159.683 88.0823 159.683 89.8489C159.683 91.6156 160.054 93.1703 160.796 94.5129C161.538 95.8556 162.545 96.8979 163.817 97.6399C165.089 98.3466 166.52 98.6999 168.11 98.6999ZM202.218 104.371C199.356 104.371 196.777 103.753 194.48 102.516C192.184 101.279 190.382 99.5656 189.074 97.3749C187.802 95.1489 187.166 92.6403 187.166 89.8489C187.166 87.0576 187.802 84.5666 189.074 82.3759C190.382 80.1853 192.184 78.4716 194.48 77.2349C196.777 75.9983 199.356 75.3799 202.218 75.3799C205.116 75.3799 207.713 75.9983 210.009 77.2349C212.306 78.4716 214.09 80.1853 215.362 82.3759C216.67 84.5666 217.323 87.0576 217.323 89.8489C217.323 92.6403 216.67 95.1489 215.362 97.3749C214.09 99.5656 212.306 101.279 210.009 102.516C207.713 103.753 205.116 104.371 202.218 104.371ZM202.218 98.6999C204.656 98.6999 206.67 97.8873 208.26 96.2619C209.85 94.6366 210.645 92.4989 210.645 89.8489C210.645 87.1989 209.85 85.0613 208.26 83.4359C206.67 81.8106 204.656 80.9979 202.218 80.9979C199.78 80.9979 197.766 81.8106 196.176 83.4359C194.622 85.0613 193.844 87.1989 193.844 89.8489C193.844 92.4989 194.622 94.6366 196.176 96.2619C197.766 97.8873 199.78 98.6999 202.218 98.6999ZM240.672 102.463C239.894 103.099 238.94 103.576 237.81 103.894C236.714 104.212 235.548 104.371 234.312 104.371C231.202 104.371 228.8 103.558 227.103 101.933C225.408 100.308 224.56 97.9403 224.56 94.8309V81.2099H219.896V75.9099H224.56V69.4439H231.185V75.9099H238.764V81.2099H231.185V94.6719C231.185 96.0499 231.52 97.1099 232.192 97.8519C232.863 98.5586 233.835 98.9119 235.107 98.9119C236.591 98.9119 237.827 98.5233 238.817 97.7459L240.672 102.463ZM246.121 75.6979H252.746V104H246.121V75.6979ZM249.46 71.0339C248.259 71.0339 247.252 70.6629 246.439 69.9209C245.627 69.1436 245.22 68.1896 245.22 67.0589C245.22 65.9283 245.627 64.9919 246.439 64.2499C247.252 63.4726 248.259 63.0839 249.46 63.0839C250.662 63.0839 251.669 63.4549 252.481 64.1969C253.294 64.9036 253.7 65.8046 253.7 66.8999C253.7 68.0659 253.294 69.0553 252.481 69.8679C251.704 70.6453 250.697 71.0339 249.46 71.0339ZM274.427 104.371C271.494 104.371 268.862 103.753 266.53 102.516C264.198 101.279 262.378 99.5656 261.071 97.3749C259.763 95.1489 259.11 92.6403 259.11 89.8489C259.11 87.0576 259.763 84.5666 261.071 82.3759C262.378 80.1853 264.18 78.4716 266.477 77.2349C268.809 75.9983 271.459 75.3799 274.427 75.3799C277.218 75.3799 279.656 75.9453 281.741 77.0759C283.861 78.2066 285.451 79.8319 286.511 81.9519L281.423 84.9199C280.61 83.6126 279.585 82.6409 278.349 82.0049C277.147 81.3336 275.822 80.9979 274.374 80.9979C271.9 80.9979 269.851 81.8106 268.226 83.4359C266.6 85.0259 265.788 87.1636 265.788 89.8489C265.788 92.5343 266.583 94.6896 268.173 96.3149C269.798 97.9049 271.865 98.6999 274.374 98.6999C275.822 98.6999 277.147 98.3819 278.349 97.7459C279.585 97.0746 280.61 96.0853 281.423 94.7779L286.511 97.7459C285.415 99.8659 283.808 101.509 281.688 102.675C279.603 103.806 277.183 104.371 274.427 104.371ZM300.983 104.371C298.686 104.371 296.442 104.071 294.252 103.47C292.061 102.869 290.312 102.11 289.005 101.191L291.549 96.1559C292.821 97.0039 294.34 97.6929 296.107 98.2229C297.909 98.7176 299.675 98.9649 301.407 98.9649C305.364 98.9649 307.343 97.9226 307.343 95.8379C307.343 94.8486 306.83 94.1596 305.806 93.7709C304.816 93.3823 303.209 93.0113 300.983 92.6579C298.651 92.3046 296.743 91.8983 295.259 91.4389C293.81 90.9796 292.538 90.1846 291.443 89.0539C290.383 87.8879 289.853 86.2803 289.853 84.2309C289.853 81.5456 290.966 79.4079 293.192 77.8179C295.453 76.1926 298.492 75.3799 302.308 75.3799C304.251 75.3799 306.194 75.6096 308.138 76.0689C310.081 76.4929 311.671 77.0759 312.908 77.8179L310.364 82.8529C307.961 81.4396 305.258 80.7329 302.255 80.7329C300.311 80.7329 298.827 81.0333 297.803 81.6339C296.813 82.1993 296.319 82.9589 296.319 83.9129C296.319 84.9729 296.849 85.7326 297.909 86.1919C299.004 86.6159 300.682 87.0223 302.944 87.4109C305.205 87.7643 307.06 88.1706 308.509 88.6299C309.957 89.0893 311.194 89.8666 312.219 90.9619C313.279 92.0573 313.809 93.6119 313.809 95.6259C313.809 98.2759 312.66 100.396 310.364 101.986C308.067 103.576 304.94 104.371 300.983 104.371Z" fill="#EE7A1B"/>
<rect width="8.80336" height="41.2015" rx="4.40168" transform="matrix(0.67419 0.738558 0.738558 -0.67419 242.9 66.7126)" fill="#EF7816"/>
<ellipse rx="7.1978" ry="7.2038" transform="matrix(0.98128 -0.192585 -0.192585 -0.98128 275.986 41.6417)" fill="black"/>
<path d="M238.163 16.894L239.738 14.9034L245.515 18.7546L250.352 18.2204L252.807 21.9784L244.536 21.6772L238.163 16.894Z" fill="black"/>
<path d="M251.783 3.99807L249.687 5.53452L253.522 11.3855L252.85 16.2124L256.671 18.739L256.565 10.4631L251.783 3.99807Z" fill="black"/>
<rect width="9.30475" height="35.9159" rx="4.65238" transform="matrix(0.701893 -0.712282 -0.712282 -0.701893 275.908 47.9236)" fill="#EE7A1B"/>
<circle r="2.54576" transform="matrix(0.954072 0.299579 0.299579 -0.954072 276.254 41.4308)" fill="#D1D1D1"/>
<path d="M251.354 25.6185C253.695 28.7243 258.256 29.0066 260.962 26.213V26.213C263.738 23.3467 263.204 18.6581 259.854 16.4894L257.531 14.9855C255.251 13.5095 252.254 13.7989 250.299 15.6841V15.6841C248.172 17.7344 247.91 21.0494 249.688 23.4085L251.354 25.6185Z" fill="black"/>
</svg>
