<?xml version="1.0" standalone="no"?>
<!DOCTYPE svg PUBLIC "-//W3C//DTD SVG 20010904//EN"
 "http://www.w3.org/TR/2001/REC-SVG-20010904/DTD/svg10.dtd">
<svg version="1.0" xmlns="http://www.w3.org/2000/svg"
 width="260.000000pt" height="260.000000pt" viewBox="0 0 260.000000 260.000000"
 preserveAspectRatio="xMidYMid meet">
<metadata>
Created by potrace 1.14, written by Peter Selinger 2001-2017
</metadata>
<g transform="translate(0.000000,260.000000) scale(0.100000,-0.100000)"
fill="#000000" stroke="none">
<path d="M1314 2072 l-41 -3 -1 -110 -1 -109 327 0 c302 0 330 -2 370 -20 68
-31 92 -66 92 -134 0 -87 -47 -135 -139 -143 -31 -2 -312 -5 -626 -6 l-570 -2
-2 -107 -1 -108 202 -2 202 -3 -78 -240 c-42 -132 -83 -250 -89 -262 -19 -36
-80 -71 -134 -79 -27 -4 -157 -7 -287 -7 l-238 0 0 -108 c0 -97 2 -109 18
-110 73 -4 495 0 527 5 124 20 182 50 266 139 44 47 48 58 168 418 68 203 124
369 126 369 3 0 479 -658 619 -857 28 -40 54 -72 58 -72 4 -1 45 27 92 61 88
64 91 70 53 110 -11 11 -148 201 -197 271 -8 12 -67 94 -130 182 -64 88 -119
165 -123 171 -5 8 22 12 91 12 267 3 424 152 410 391 -10 173 -127 303 -307
342 -46 10 -556 18 -657 11z"/>
</g>
</svg>
